# xmcd CD database file
#
# Track frame offsets:
#	150
#	41313
#	65827
#	100234
#	127533
#	151317
#	181613
#	203390
#	244001
#	274365
#	294502
#
# Disc length: 4421 seconds
#
# Revision: 2
# Processed by: cddbd v1.5.2PL0 Copyright (c) Steve Scherf et al.
# Submitted via: CDex 1.51
#
DISCID=8c11430b
DTITLE=Elsberg, Marc - Blackout - Morgen ist es zu spät
DYEAR=2012
DGENRE=Hörbuch
TTITLE0=49 Blackout - Morgen ist es zu spät
TTITLE1=50 Blackout - Morgen ist es zu spät
TTITLE2=51 Blackout - Morgen ist es zu spät
TTITLE3=52 Blackout - Morgen ist es zu spät
TTITLE4=53 Blackout - Morgen ist es zu spät
TTITLE5=54 Blackout - Morgen ist es zu spät
TTITLE6=55 Blackout - Morgen ist es zu spät
TTITLE7=56 Blackout - Morgen ist es zu spät
TTITLE8=57 Blackout - Morgen ist es zu spät
TTITLE9=58 Blackout - Morgen ist es zu spät
TTITLE10=59 Blackout - Morgen ist es zu spät
EXTD=YEAR: 2012
EXTT0=
EXTT1=
EXTT2=
EXTT3=
EXTT4=
EXTT5=
EXTT6=
EXTT7=
EXTT8=
EXTT9=
EXTT10=
PLAYORDER=
